<svg width="304" height="254" viewBox="0 0 304 254" fill="none" xmlns="http://www.w3.org/2000/svg">
<path id="Vector" d="M291.333 0H12.6667C9.30726 0 6.08544 1.33452 3.70998 3.70997C1.33452 6.08543 0 9.30723 0 12.6666L0 240.666C0 244.025 1.33452 247.247 3.70998 249.623C6.08544 251.998 9.30726 253.333 12.6667 253.333H291.333C294.693 253.333 297.915 251.998 300.29 249.623C302.665 247.247 304 244.025 304 240.666V12.6666C304 9.30723 302.665 6.08543 300.29 3.70997C297.915 1.33452 294.693 0 291.333 0ZM278.667 227.999H253.333V215.333H190V227.999H25.3333V25.3333H278.667V227.999ZM130.34 97.6598C130.34 91.9152 132.622 86.4059 136.684 82.3439C140.746 78.2818 146.255 75.9998 152 75.9998C164.033 75.9998 173.66 85.7531 173.66 97.6598C173.66 109.693 164.033 119.446 152 119.446C139.967 119.446 130.34 109.693 130.34 97.6598ZM72.3267 117.673C72.3267 108.68 79.6733 101.333 88.6667 101.333C93.0003 101.333 97.1564 103.055 100.221 106.119C103.285 109.183 105.007 113.339 105.007 117.673C105.007 126.666 97.66 133.886 88.6667 133.886C79.6733 133.886 72.3267 126.666 72.3267 117.673ZM198.993 117.673C198.993 113.339 200.715 109.183 203.779 106.119C206.844 103.055 211 101.333 215.333 101.333C219.667 101.333 223.823 103.055 226.887 106.119C229.952 109.183 231.673 113.339 231.673 117.673C231.673 126.666 224.327 133.886 215.333 133.886C206.34 133.886 198.993 126.666 198.993 117.673ZM253.333 166.44V177.333H202.667H177.333H126.667H101.333H50.6667V166.44C50.6667 154.533 70.3 144.78 88.6667 144.78C95.6333 144.78 102.727 146.173 108.933 148.58C118.433 139.84 135.533 133.886 152 133.886C168.467 133.886 185.567 139.84 195.067 148.58C201.273 146.173 208.367 144.78 215.333 144.78C233.7 144.78 253.333 154.533 253.333 166.44Z" fill="#9B36B5"/>
</svg>
